<svg width="512" height="512" viewBox="0 0 512 512" fill="none" xmlns="http://www.w3.org/2000/svg">
<path fill-rule="evenodd" clip-rule="evenodd" d="M200.179 33.6707C198.68 24.831 211.133 21.2581 214.557 29.5456L221.23 45.7052C221.436 46.208 221.595 46.7172 221.709 47.2283C237.712 43.3724 253.833 41.4307 269.798 41.2801C269.78 40.7542 269.811 40.2184 269.891 39.6768L272.437 22.4246C273.745 13.555 286.694 14.0027 287.386 22.9415L288.733 40.3283C288.774 40.8761 288.768 41.4145 288.715 41.9401C304.95 43.2272 320.904 46.3552 336.279 51.1907C336.426 50.6854 336.62 50.1851 336.863 49.6948L344.635 34.0427C348.622 26.0113 360.8 30.4359 358.693 39.1508L354.589 56.1358C354.461 56.6678 354.288 57.1756 354.077 57.6574C369.017 63.838 383.254 71.6883 396.487 81.0734C396.777 80.6539 397.107 80.2524 397.477 79.8739L409.707 67.3873C415.984 60.9804 426.197 68.9488 421.5 76.5868L412.344 91.4726C412.072 91.9147 411.77 92.3241 411.44 92.7003C424.886 104.141 437.014 117.322 447.442 132.073C447.417 130.652 447.409 129.241 447.401 127.855L447.399 127.602C447.369 120.528 453.77 115.091 461.021 114.078C464.489 113.618 468.01 114.321 471.035 116.076C474.059 117.831 476.414 120.539 477.734 123.775C481.861 134.27 482.559 145.801 479.725 156.715C479.493 157.698 479.223 158.679 478.914 159.791L478.752 160.379C478.685 160.624 478.614 160.877 478.544 161.137C489.146 167.109 497.459 176.436 502.175 187.647C505.963 196.676 502.368 205.897 494.02 209.559C489.718 211.405 485.505 210.919 481.648 208.901C485.059 223.908 486.791 239.002 486.948 253.961C487.395 253.959 487.849 253.991 488.309 254.058L505.57 256.602C514.447 257.909 513.999 270.85 505.053 271.541L487.656 272.887C487.198 272.922 486.746 272.924 486.304 272.892C485.028 289.138 481.906 305.103 477.071 320.49C477.481 320.625 477.886 320.789 478.284 320.986L493.945 328.751C501.981 332.737 497.554 344.905 488.832 342.801L471.838 338.7C471.409 338.596 470.996 338.465 470.599 338.306C464.412 353.26 456.549 367.511 447.145 380.756C447.471 380.999 447.785 381.266 448.083 381.559L460.576 393.78C466.989 400.05 459.015 410.257 451.371 405.562L436.478 396.415C436.131 396.201 435.802 395.969 435.496 395.719C425.075 407.951 413.209 419.093 400.029 428.855C400.253 429.175 400.459 429.514 400.647 429.871L408.734 445.321C412.892 453.265 402.152 460.508 396.335 453.684L385.022 440.41C384.757 440.101 384.52 439.781 384.306 439.452C373.17 446.26 361.253 452.146 348.617 456.972C345.854 458.028 343.081 459.021 340.301 459.957C340.413 460.325 340.503 460.706 340.568 461.097L343.489 478.329C344.987 487.169 332.534 490.741 329.111 482.455L322.439 466.297C322.29 465.938 322.167 465.577 322.068 465.213C306.029 469.082 289.873 471.029 273.873 471.178C273.865 471.557 273.833 471.94 273.777 472.327L271.231 489.575C269.923 498.445 256.973 497.997 256.281 489.058L254.935 471.676C254.904 471.282 254.9 470.893 254.919 470.511C238.65 469.217 222.663 466.071 207.26 461.213C207.132 461.583 206.98 461.948 206.801 462.308L199.032 477.957C195.045 485.989 182.867 481.564 184.973 472.849L189.077 455.868C189.173 455.471 189.293 455.087 189.435 454.719C174.476 448.512 160.221 440.631 146.977 431.21C146.738 431.529 146.475 431.836 146.188 432.129L133.959 444.613C127.684 451.02 117.471 443.052 122.169 435.413L131.322 420.53C131.536 420.181 131.77 419.853 132.021 419.546C119.8 409.114 108.671 397.244 98.9243 384.06C98.5852 384.303 98.2245 384.525 97.8431 384.724L82.3825 392.805C74.4327 396.961 67.1838 386.228 74.0135 380.415L87.2956 369.109C87.6323 368.821 87.9833 368.565 88.3455 368.337C83.0104 359.594 78.2438 350.37 74.1136 340.697L44.791 379.541C40.9042 384.69 33.3241 385.241 29.2648 380.226C1.47706 345.9 -1.95707 300.503 0.766729 272.767C1.42166 266.097 8.40868 262.42 14.5871 265.025L58.5018 283.538C57.403 275.021 56.8275 266.508 56.7572 258.039C56.2972 258.042 55.8302 258.012 55.3588 257.941L38.0968 255.397C29.2211 254.09 29.6691 241.149 38.6141 240.458L56.0108 239.113C56.4955 239.076 56.9731 239.077 57.4406 239.114C58.7493 222.881 61.9021 206.932 66.7653 191.564C66.2992 191.421 65.8376 191.239 65.3845 191.013L49.7228 183.249C41.686 179.265 46.1136 167.096 54.8346 169.2L71.8299 173.301C72.3302 173.422 72.8093 173.581 73.2654 173.775C79.4728 158.852 87.3509 144.632 96.7647 131.418C96.3524 131.132 95.9578 130.807 95.5854 130.443L83.0906 118.221C76.6792 111.949 84.653 101.744 92.2965 106.438L107.192 115.587C107.635 115.859 108.046 116.162 108.423 116.492C118.844 104.298 130.703 93.1918 143.871 83.462C143.556 83.0518 143.271 82.6081 143.022 82.132L134.934 66.6798C130.776 58.7353 141.515 51.4915 147.333 58.3166L158.648 71.5915C159.003 72.0075 159.312 72.4451 159.578 72.899C170.664 66.1363 182.522 60.2857 195.09 55.4859C197.889 54.4177 200.694 53.4116 203.507 52.4673C203.328 51.9704 203.19 51.4499 203.099 50.9084L200.179 33.6707Z" fill="white"/>
<path fill-rule="evenodd" clip-rule="evenodd" d="M238.794 131.964C237.95 126.979 244.968 124.965 246.895 129.638L250.656 138.75C250.773 139.033 250.862 139.32 250.925 139.608C259.944 137.434 269.028 136.339 278.022 136.254C278.013 135.958 278.031 135.656 278.076 135.35L279.509 125.623C280.247 120.621 287.543 120.874 287.934 125.914L288.692 135.718C288.716 136.027 288.712 136.33 288.683 136.626C297.831 137.352 306.82 139.116 315.483 141.842C315.566 141.558 315.676 141.276 315.813 140.999L320.192 132.174C322.438 127.645 329.299 130.14 328.113 135.054L325.801 144.631C325.729 144.931 325.631 145.217 325.512 145.489C333.929 148.974 341.952 153.4 349.409 158.692C349.571 158.456 349.758 158.229 349.966 158.016L356.858 150.975C360.395 147.363 366.149 151.856 363.502 156.163L358.343 164.556C358.191 164.805 358.019 165.036 357.834 165.248C365.41 171.699 372.245 179.132 378.121 187.449C378.106 186.648 378.102 185.852 378.097 185.07V185.066L378.096 184.928C378.078 180.939 381.685 177.873 385.772 177.302C387.725 177.043 389.71 177.439 391.413 178.429C393.118 179.418 394.446 180.945 395.189 182.77C397.515 188.687 397.907 195.189 396.311 201.344C396.181 201.898 396.027 202.452 395.853 203.08L395.852 203.083L395.849 203.096C395.784 203.331 395.716 203.577 395.646 203.837C401.619 207.204 406.303 212.463 408.96 218.785C411.094 223.876 409.07 229.075 404.365 231.14C401.942 232.182 399.568 231.907 397.395 230.769C399.317 239.23 400.293 247.742 400.38 256.177C400.633 256.176 400.889 256.194 401.147 256.232L410.874 257.666C415.875 258.403 415.623 265.7 410.583 266.09L400.78 266.849C400.522 266.868 400.267 266.869 400.018 266.851C399.299 276.012 397.54 285.014 394.816 293.69C395.046 293.765 395.274 293.859 395.498 293.97L404.324 298.348C408.852 300.595 406.357 307.456 401.443 306.27L391.867 303.958C391.625 303.899 391.393 303.824 391.169 303.736C387.683 312.168 383.251 320.203 377.953 327.672C378.136 327.808 378.313 327.959 378.482 328.124L385.521 335.014C389.134 338.551 384.641 344.306 380.334 341.659L371.942 336.501C371.746 336.38 371.562 336.249 371.389 336.109C365.516 343.006 358.83 349.288 351.405 354.792C351.531 354.973 351.647 355.164 351.753 355.366L356.31 364.077C358.653 368.556 352.601 372.641 349.323 368.793L342.948 361.308C342.8 361.134 342.665 360.954 342.545 360.768C336.271 364.607 329.556 367.926 322.436 370.647C320.878 371.241 319.315 371.802 317.749 372.329C317.812 372.538 317.863 372.752 317.9 372.973L319.546 382.689C320.39 387.674 313.373 389.688 311.444 385.016L307.685 375.905C307.601 375.703 307.532 375.499 307.476 375.293C298.439 377.475 289.334 378.573 280.318 378.656C280.315 378.87 280.297 379.087 280.265 379.305L278.831 389.03C278.094 394.032 270.797 393.78 270.407 388.739L269.648 378.938C269.631 378.716 269.629 378.497 269.639 378.281C260.472 377.55 251.464 375.777 242.784 373.038C242.713 373.246 242.627 373.453 242.526 373.656L238.149 382.48C235.902 387.008 229.04 384.513 230.227 379.599L232.539 370.024C232.593 369.801 232.661 369.584 232.741 369.377C224.312 365.877 216.28 361.433 208.817 356.12C208.682 356.3 208.534 356.474 208.372 356.639L201.482 363.677C197.946 367.291 192.191 362.798 194.838 358.491L199.996 350.099C200.117 349.902 200.248 349.717 200.39 349.543C193.504 343.662 187.233 336.969 181.741 329.535C181.55 329.672 181.346 329.796 181.131 329.909L172.42 334.466C167.94 336.809 163.856 330.757 167.704 327.479L175.188 321.105C175.378 320.942 175.576 320.798 175.78 320.669C172.774 315.739 170.088 310.538 167.761 305.084L151.239 326.987C149.048 329.89 144.777 330.2 142.49 327.373C126.832 308.018 124.897 282.419 126.432 266.78C126.801 263.02 130.738 260.947 134.219 262.415L158.964 272.853C158.345 268.051 158.02 263.252 157.981 258.476C157.722 258.478 157.458 258.46 157.193 258.421L147.466 256.987C142.465 256.25 142.717 248.953 147.758 248.563L157.56 247.805C157.833 247.784 158.102 247.784 158.366 247.805C159.103 238.652 160.88 229.659 163.62 220.994C163.357 220.913 163.097 220.81 162.842 220.683L154.017 216.305C149.489 214.059 151.983 207.197 156.897 208.383L166.474 210.696C166.756 210.764 167.026 210.854 167.282 210.963C170.78 202.549 175.219 194.531 180.524 187.08C180.292 186.918 180.069 186.735 179.859 186.53L172.819 179.638C169.206 176.102 173.699 170.348 178.006 172.995L186.399 178.153C186.649 178.306 186.88 178.478 187.093 178.663C192.965 171.788 199.647 165.525 207.067 160.039C206.889 159.808 206.729 159.558 206.588 159.289L202.031 150.576C199.688 146.097 205.739 142.012 209.017 145.861L215.394 153.346C215.593 153.58 215.768 153.827 215.916 154.083C222.163 150.27 228.846 146.971 235.928 144.264C237.504 143.662 239.085 143.095 240.67 142.562C240.569 142.282 240.492 141.989 240.44 141.683L238.794 131.964ZM181.702 294.705C202.275 348.543 262.596 375.509 316.433 354.935C369.763 334.557 396.725 275.174 377.23 221.726C370.764 227.157 363.006 232.078 353.984 235.384C333.737 242.806 318.278 246.038 305.233 247.316C290.398 267.715 265.179 276.225 252.977 277.977L254.532 247.431C246.587 247.762 238.05 248.809 228.066 251.373C209.315 256.19 191.849 264.047 175.996 273.17C177.102 280.39 178.989 287.604 181.702 294.705ZM208.299 297.333C203.299 298.223 198.525 294.891 197.636 289.891C196.746 284.892 200.078 280.118 205.077 279.228C210.076 278.339 214.85 281.67 215.74 286.669C216.629 291.669 213.298 296.444 208.299 297.333ZM250.686 298.446C247.423 299.027 244.307 296.852 243.726 293.589C243.146 290.326 245.32 287.211 248.583 286.63C251.846 286.05 254.962 288.224 255.543 291.487C256.123 294.749 253.949 297.865 250.686 298.446ZM304.512 296.341C301.249 296.921 298.133 294.747 297.553 291.483C296.972 288.22 299.146 285.105 302.409 284.524C305.672 283.944 308.788 286.118 309.369 289.381C309.95 292.644 307.774 295.76 304.512 296.341ZM315.72 325.086C316.301 328.349 319.417 330.523 322.679 329.943C325.942 329.362 328.117 326.246 327.537 322.984C326.956 319.721 323.839 317.546 320.577 318.127C317.314 318.708 315.14 321.824 315.72 325.086ZM252.818 339.735C249.555 340.316 246.439 338.141 245.859 334.878C245.278 331.615 247.452 328.499 250.715 327.919C253.978 327.338 257.094 329.512 257.675 332.775C258.256 336.038 256.081 339.154 252.818 339.735ZM220.432 314.371C221.013 317.634 224.129 319.808 227.392 319.228C230.654 318.647 232.829 315.531 232.249 312.269C231.668 309.006 228.552 306.831 225.289 307.411C222.026 307.992 219.852 311.109 220.432 314.371ZM279.025 316.305C275.762 316.885 272.645 314.711 272.065 311.448C271.484 308.185 273.659 305.069 276.922 304.488C280.185 303.907 283.3 306.082 283.881 309.345C284.462 312.608 282.287 315.724 279.025 316.305ZM330.25 291.758C331.14 296.757 335.914 300.088 340.913 299.199C345.913 298.309 349.244 293.535 348.354 288.536C347.465 283.536 342.69 280.204 337.691 281.094C332.692 281.984 329.361 286.758 330.25 291.758ZM278.783 338.361C279.673 343.36 284.447 346.692 289.447 345.802C294.446 344.912 297.777 340.139 296.888 335.139C295.998 330.139 291.224 326.808 286.225 327.698C281.225 328.587 277.893 333.362 278.783 338.361ZM349.085 197.281C350.926 205.365 346.153 213.345 338.427 215.104C330.7 216.863 322.944 211.734 321.104 203.649C319.265 195.564 324.036 187.585 331.763 185.826C339.49 184.067 347.245 189.196 349.085 197.281Z" fill="black"/>
<path d="M339.022 208.082C342.503 207.29 344.582 203.392 343.668 199.377C342.755 195.361 339.193 192.748 335.713 193.54C332.232 194.332 330.153 198.229 331.067 202.245C331.981 206.261 335.543 208.874 339.022 208.082Z" fill="black"/>
</svg>
